HIERARCHY
ROOT Hips
{
	OFFSET 0.00000 0.00000 0.00000
	CHANNELS 6 Xposition Yposition Zposition Zrotation Yrotation Xrotation 
	JOINT LHipJoint
	{
		OFFSET 0 0 0
		CHANNELS 3 Zrotation Yrotation Xrotation
		JOINT LeftHip
		{
			OFFSET 1.62329 -1.80800 0.67318
			CHANNELS 3 Zrotation Yrotation Xrotation
			JOINT LeftKnee
			{
				OFFSET 2.57139 -7.06484 0.00000
				CHANNELS 3 Zrotation Yrotation Xrotation
				JOINT LeftAnkle
				{
					OFFSET 2.52017 -6.92413 0.00000
					CHANNELS 3 Zrotation Yrotation Xrotation
					JOINT LeftToe
					{
						OFFSET 0.23295 -0.64001 2.10214
						CHANNELS 3 Zrotation Yrotation Xrotation
						End Site
						{
							OFFSET 0.00000 -0.00000 1.10139
						}
					}
				}
			}
		}
	}
	JOINT RHipJoint
	{
		OFFSET 0 0 0
		CHANNELS 3 Zrotation Yrotation Xrotation
		JOINT RightHip
		{
			OFFSET -1.48061 -1.80800 0.67318
			CHANNELS 3 Zrotation Yrotation Xrotation
			JOINT RightKnee
			{
				OFFSET -2.63258 -7.23296 0.00000
				CHANNELS 3 Zrotation Yrotation Xrotation
				JOINT RightAnkle
				{
					OFFSET -2.54779 -7.00000 0.00000
					CHANNELS 3 Zrotation Yrotation Xrotation
					JOINT RightToe
					{
						OFFSET -0.23067 -0.63376 2.12161
						CHANNELS 3 Zrotation Yrotation Xrotation
						End Site
						{
							OFFSET -0.00000 -0.00000 1.11000
						}
					}
				}
			}
		}
	}
	JOINT lowerback
	{
		OFFSET 0 0 0
		CHANNELS 3 Zrotation Yrotation Xrotation
		JOINT Chest
		{
			OFFSET -0.02108 2.07573 -0.16981
			CHANNELS 3 Zrotation Yrotation Xrotation
			JOINT Chest2
			{
				OFFSET 0.05070 2.08439 -0.03141
				CHANNELS 3 Zrotation Yrotation Xrotation
				JOINT lowerneck
				{
					OFFSET 0 0 0
					CHANNELS 3 Zrotation Yrotation Xrotation
					JOINT Neck
					{
						OFFSET -0.10731 1.60408 0.31370
						CHANNELS 3 Zrotation Yrotation Xrotation
						JOINT Head
						{
							OFFSET 0.08411 1.65679 -0.30822
							CHANNELS 3 Zrotation Yrotation Xrotation
							End Site
							{
								OFFSET 0.03911 1.69149 -0.14146
							}
						}
					}
				}
				JOINT LeftCollar
				{
					OFFSET 0 0 0
					CHANNELS 3 Zrotation Yrotation Xrotation
					JOINT LeftShoulder
					{
						OFFSET 3.52315 0.73219 -0.54694
CHANNELS 3 Zrotation Xrotation Yrotation
						JOINT LeftElbow
						{
OFFSET 0 -5.324620 -0.000000
CHANNELS 3 Zrotation Xrotation Yrotation
							JOINT LeftWrist
							{
OFFSET 0 -3.484020 -0.000000
CHANNELS 3 Zrotation Xrotation Yrotation
								JOINT lhand
								{
									OFFSET 0 0 0
CHANNELS 3 Zrotation Xrotation Yrotation
									JOINT LFingers
									{
OFFSET 0 -0.572480 -0.000000
CHANNELS 3 Zrotation Xrotation Yrotation
										End Site
										{
OFFSET 0 -0.461540 -0.000000
										}
									}
								}
								JOINT LThumb
								{
OFFSET 0 0.000000 0.000000
CHANNELS 3 Zrotation Xrotation Yrotation
									End Site
									{
OFFSET 0 -0.468590 0.468590
									}
								}
							}
						}
					}
				}
				JOINT RightCollar
				{
					OFFSET 0 0 0
					CHANNELS 3 Zrotation Yrotation Xrotation
					JOINT RightShoulder
					{
						OFFSET -3.41766 0.93592 -0.10019
CHANNELS 3 Zrotation Xrotation Yrotation
						JOINT RightElbow
						{
OFFSET 0 -5.335890 -0.000000
CHANNELS 3 Zrotation Xrotation Yrotation
							JOINT RightWrist
							{
OFFSET 0 -3.641340 -0.000000
CHANNELS 3 Zrotation Xrotation Yrotation
								JOINT rhand
								{
									OFFSET 0 0 0
CHANNELS 3 Zrotation Xrotation Yrotation
									JOINT RFingers
									{
OFFSET 0 -0.734810 -0.000000
CHANNELS 3 Zrotation Xrotation Yrotation
										End Site
										{
OFFSET 0 -0.592420 -0.000000
										}
									}
								}
								JOINT RThumb
								{
OFFSET 0 0.000000 0.000000
CHANNELS 3 Zrotation Xrotation Yrotation
									End Site
									{
OFFSET 0 -0.601470 0.601470
									}
								}
							}
						}
					}
				}
			}
		}
	}
}
MOTION
Frames: 5
Frame Time: 0.008333333333333333
-6.207233 17.649685 6.732225 -551.784509 70.558511 175.979364 0.000000 0.000000 0.000000 -26.343483 -3.718861 -16.964826 1.926915 8.712140 24.899010 0.478824 -4.530206 -12.310717 0.382759 -3.972128 -10.998372 0.000000 0.000000 0.000000 12.933548 -0.613610 -24.888307 -10.698122 -17.783706 61.796811 -0.502386 -8.294164 -18.911713 -0.347227 -3.771460 10.436315 -4.203563 2.993411 2.685680 -0.631243 3.902424 1.171552 1.572338 1.952394 -0.534609 -6.121680 2.301717 -17.270218 -3.837871 9.894161 37.764515 1.460280 3.396212 16.550498 0.000000 0.000000 0.000000 2.590550 3.115293 -21.528579 17.882164 -28.005677 4.494004 16.516800 13.575140 -23.487430 0.000000 0.000000 0.000000 -7.125000 0.000000 0.000000 -13.294353 53.870116 2.938976 0.000000 0.000000 0.000000 -3.302196 5.029098 19.660786 -22.980755 -34.067784 -7.127521 -24.023993 18.263945 -5.107920 0.000000 0.000000 0.000000 7.125000 0.000000 0.000000 1.981219 24.390585 0.986771
-6.053574 17.618836 6.599344 -551.389846 70.022962 176.200967 0.000000 0.000000 0.000000 -26.590573 -4.011896 -16.373656 2.064628 8.999278 25.793105 0.562108 -4.659083 -13.345305 0.299078 -3.516656 -9.720545 0.000000 0.000000 0.000000 12.931574 0.660173 -27.805869 -11.310258 -18.083522 63.784896 -0.455356 -2.926107 -14.163837 -0.130934 -2.328866 6.415615 -4.414297 2.440756 2.963401 -0.371825 3.165841 1.593991 1.983424 1.574139 -0.237502 -6.774207 2.445152 -18.167483 -3.811391 10.454101 37.973604 1.719756 3.478783 16.850582 0.000000 0.000000 0.000000 2.700560 1.289479 -22.888500 18.751548 -29.108655 4.909495 17.974885 15.240186 -22.905447 0.000000 0.000000 0.000000 -7.125000 0.000000 0.000000 -11.574969 53.559714 2.462324 0.000000 0.000000 0.000000 -3.740944 4.428618 20.569630 -23.391062 -34.513502 -7.358816 -23.643746 17.759765 -5.712806 0.000000 0.000000 0.000000 7.125000 0.000000 0.000000 2.272113 23.748222 1.165603
-5.892718 17.573793 6.469994 -551.288134 69.931108 176.364287 0.000000 0.000000 0.000000 -26.870931 -4.282025 -16.075580 2.229628 9.328771 26.829457 0.687839 -4.652932 -14.783472 0.222934 -3.029422 -8.361431 0.000000 0.000000 0.000000 13.291489 1.749858 -30.947455 -11.437977 -18.142859 64.195972 -0.365799 0.894320 -11.152782 -0.019897 -0.841835 2.314162 -4.461488 2.371211 3.017794 -0.536889 3.066973 1.513287 1.839758 1.528468 -0.337487 -6.529987 2.297457 -17.376756 -3.643146 10.049171 38.132273 1.653329 3.404624 16.735889 0.000000 0.000000 0.000000 3.721325 0.170964 -25.426636 19.551161 -30.097479 5.304600 19.354594 16.371670 -22.230648 0.000000 0.000000 0.000000 -7.125000 0.000000 0.000000 -9.914188 53.131195 1.998815 0.000000 0.000000 0.000000 -3.500263 4.788126 20.957514 -23.885634 -35.042959 -7.640855 -23.741185 17.340441 -5.580373 0.000000 0.000000 0.000000 7.125000 0.000000 0.000000 2.197965 23.887995 1.120349
-5.737144 17.548292 6.340288 -550.721489 70.060691 176.816943 0.000000 0.000000 0.000000 -26.941671 -3.901116 -15.646927 2.334952 9.531526 27.472492 0.793913 -4.854536 -15.899247 0.192656 -2.826380 -7.795912 0.000000 0.000000 0.000000 14.073827 2.804023 -33.678589 -11.102022 -17.984626 63.112518 -0.378531 2.638476 -11.011931 -0.040062 1.290422 -3.548228 -4.417567 2.029971 3.432475 -0.324073 2.608219 1.848851 2.044010 1.293884 -0.202094 -7.146653 2.383758 -18.031393 -3.389259 10.385788 38.355612 1.956132 3.439666 16.961455 0.000000 0.000000 0.000000 3.816275 -1.890842 -26.062327 20.230504 -30.918968 5.649332 20.308616 17.183648 -22.015935 0.000000 0.000000 0.000000 -7.125000 0.000000 0.000000 -8.871962 53.086735 1.776049 0.000000 0.000000 0.000000 -4.230821 4.344642 22.528128 -24.357581 -35.540099 -7.913403 -23.707823 16.892853 -5.782176 0.000000 0.000000 0.000000 7.125000 0.000000 0.000000 2.225572 23.669729 1.145701
-5.564274 17.520336 6.208560 -550.791711 70.488358 176.887337 0.000000 0.000000 0.000000 -27.221191 -3.771869 -15.158256 2.384210 9.624304 27.768534 0.915488 -4.365536 -17.143054 0.204696 -2.912194 -8.034424 0.000000 0.000000 0.000000 14.917108 3.872875 -36.170265 -10.277692 -17.562242 60.411369 -0.432036 2.915646 -11.754457 -0.082225 1.844021 -5.074879 -4.378085 2.010436 3.691992 -0.504820 2.568631 1.792679 1.827298 1.280328 -0.392231 -6.542176 2.337991 -17.721304 -3.620972 10.220142 38.564291 1.717802 3.429609 17.052474 0.000000 0.000000 0.000000 4.645002 -3.077215 -27.099943 21.296599 -32.172278 6.207396 20.257540 17.066557 -22.026436 0.000000 0.000000 0.000000 -7.125000 0.000000 0.000000 -8.927535 53.088111 1.787828 0.000000 0.000000 0.000000 -4.139563 4.530707 23.057254 -24.776365 -35.974489 -8.158145 -23.747152 17.065401 -5.788002 0.000000 0.000000 0.000000 7.125000 0.000000 0.000000 2.196459 23.661411 1.131172
